<svg width="288" height="40" viewBox="0 0 288 40" fill="none" xmlns="http://www.w3.org/2000/svg">
<g clip-path="url(#clip0_3292_216)">
<path d="M37.7398 2.59371V4.54976C37.7398 5.23912 37.4623 5.89401 36.9767 6.38518L13.3199 29.9612C11.6809 31.5984 12.843 34.3817 15.167 34.3817H35.6672C37.1067 34.3817 38.2774 35.545 38.2774 36.9754V37.4063C38.2774 38.8367 37.1067 40 35.6672 40H2.61022C1.1707 40 0 38.8367 0 37.4063V35.4502C0 34.7609 0.277498 34.106 0.763121 33.6234L24.3765 10.0474C26.0155 8.41017 24.8448 5.62689 22.5294 5.62689H3.26061C1.82108 5.62689 0.650387 4.46359 0.650387 3.03318V2.59371C0.650387 1.16329 1.81241 0 3.26061 0H35.1382C36.5778 0 37.7485 1.16329 37.7485 2.59371H37.7398Z" fill="black"/>
<path d="M76.9539 1.74063L89.1898 36.5532C89.7795 38.2421 88.5221 40 86.727 40H85.4609C84.3596 40 83.371 39.3106 83.0068 38.2766L73.728 12.4171C72.9041 10.1163 69.6349 10.1163 68.811 12.4171L59.5322 38.2766C59.1593 39.3106 58.1794 40 57.0781 40H55.812C54.0169 40 52.7595 38.2335 53.3492 36.5532L65.5851 1.74063C65.9493 0.697975 66.9379 0 68.0479 0H74.4911C75.6011 0 76.5897 0.697975 76.9539 1.74063Z" fill="black"/>
<path d="M105.467 1.22361L113.74 14.4334C114.763 16.062 117.148 16.062 118.171 14.4334L126.444 1.22361C126.921 0.465317 127.762 0 128.664 0C130.684 0 131.933 2.1801 130.919 3.90349L119.151 23.8432C118.917 24.2396 118.795 24.6963 118.795 25.153V37.3977C118.795 38.8281 117.625 39.9914 116.185 39.9914H115.752C114.312 39.9914 113.141 38.8281 113.141 37.3977V25.153C113.141 24.6876 113.02 24.2396 112.786 23.8432L101.018 3.90349C99.9775 2.1801 101.235 0 103.255 0C104.157 0 104.999 0.465317 105.475 1.22361H105.467Z" fill="black"/>
<path d="M174.494 38.5954L167.028 24.2137C166.577 23.352 165.684 22.8091 164.713 22.8091H155.243C153.803 22.8091 152.633 23.9724 152.633 25.4028V37.4063C152.633 38.8367 151.462 40 150.023 40H149.589C148.149 40 146.979 38.8367 146.979 37.4063V21.7062C146.979 19.2159 149.017 17.1909 151.531 17.1909H168.537C168.537 17.1909 175.691 17.3546 175.691 11.4089C175.691 5.46316 168.537 5.62689 168.537 5.62689H149.589C148.149 5.62689 146.979 4.46359 146.979 3.03318V2.60233C146.961 1.16329 148.132 0 149.572 0H169.708C169.708 0 181.415 0.172339 181.415 11.4089C181.415 17.3374 178.145 20.1896 175.067 21.5511C173.688 22.1629 173.098 23.7829 173.792 25.1099L179.559 36.2171C180.452 37.9405 179.195 40 177.243 40H176.818C175.839 40 174.945 39.4571 174.503 38.5954H174.494Z" fill="black"/>
<path d="M230.758 4.01558V4.44643C230.758 5.87685 229.587 7.04014 228.147 7.04014H200.623C199.183 7.04014 198.013 5.87685 198.013 4.44643V4.01558C198.013 2.58517 199.183 1.42188 200.623 1.42188H228.147C229.587 1.42188 230.758 2.58517 230.758 4.01558ZM230.758 19.7846V20.2155C230.758 21.6459 229.587 22.8092 228.147 22.8092H200.623C199.183 22.8092 198.013 21.6459 198.013 20.2155V19.7846C198.013 18.3542 199.183 17.1909 200.623 17.1909H228.147C229.587 17.1909 230.758 18.3542 230.758 19.7846ZM230.758 35.5537V35.9846C230.758 37.415 229.587 38.5783 228.147 38.5783H200.623C199.183 38.5783 198.013 37.415 198.013 35.9846V35.5537C198.013 34.1233 199.183 32.96 200.623 32.96H228.147C229.587 32.96 230.758 34.1233 230.758 35.5537Z" fill="black"/>
<path d="M259.981 1.11159L277.221 27.9276C278.678 30.0043 281.973 28.9789 281.973 26.4455V2.59371C281.973 1.16329 283.144 0 284.583 0H285.39C286.829 0 288 1.16329 288 2.59371V37.4063C288 38.8367 286.829 40 285.39 40H281.037C280.195 40 279.398 39.595 278.912 38.9143L261.846 12.7359C260.372 10.6764 257.111 11.7191 257.111 14.2439V37.4063C257.111 38.8367 255.94 40 254.501 40H253.781C252.342 40 251.171 38.8367 251.171 37.4063V2.59371C251.171 1.16329 252.342 0 253.781 0H257.84C258.689 0 259.496 0.413615 259.981 1.11159Z" fill="black"/>
</g>
<defs>
<clipPath id="clip0_3292_216">
<rect width="288" height="40" fill="white"/>
</clipPath>
</defs>
</svg>
