<svg width="95" height="74" viewBox="0 0 95 74" fill="none" xmlns="http://www.w3.org/2000/svg">
<g clip-path="url(#clip0_3292_202)">
<path d="M4.50074 74C2.01423 74.0406 0 71.9722 0 69.469V66.0514C0 64.8526 0.472275 63.7067 1.31188 62.8573L42.0325 21.6677C44.8581 18.8109 42.8479 13.9426 38.8436 13.9426H5.61483C3.12832 13.9426 1.11409 11.9148 1.11409 9.41154V8.65163C1.11409 6.14839 3.12832 4.12061 5.61483 4.12061H62.6068C65.0933 4.12061 67.1075 6.14839 67.1075 8.65163V12.0692C67.1075 13.268 66.6352 14.418 65.7956 15.2673L24.9983 56.4489L9.86127 71.7284C9.86127 71.7284 7.10028 73.9553 4.50478 73.9959L4.50074 74Z" fill="white"/>
<path d="M90.4993 0.000100465C92.9858 -0.0405365 95.0001 2.02789 95.0001 4.53113V7.9487C95.0001 9.14749 94.5278 10.2935 93.6882 11.1428L52.9676 52.3284C50.142 55.1852 52.1522 60.0535 56.1564 60.0535H89.3852C91.8718 60.0535 93.886 62.0813 93.886 64.5845V65.3444C93.886 67.8477 91.8718 69.8754 89.3852 69.8754H32.3933C29.9068 69.8754 27.8926 67.8477 27.8926 65.3444V61.9268C27.8926 60.7281 28.3649 59.578 29.2045 58.7287L70.0018 17.5472L85.1428 2.26765C85.1428 2.26765 87.8998 0.0407375 90.4993 0.000100465Z" fill="white"/>
</g>
<defs>
<clipPath id="clip0_3292_202">
<rect width="95" height="74" fill="white"/>
</clipPath>
</defs>
</svg>
